<svg xmlns="http://www.w3.org/2000/svg" xmlns:xlink="http://www.w3.org/1999/xlink" width="1080" zoomAndPan="magnify" viewBox="0 0 810 809.999993" height="1080" preserveAspectRatio="xMidYMid meet" version="1.0"><defs><clipPath id="91b7ae38f6"><path d="M 552 159.679688 L 583 159.679688 L 583 236 L 552 236 Z M 552 159.679688 " clip-rule="nonzero"/></clipPath><clipPath id="121c49305e"><path d="M 718 369 L 793.371094 369 L 793.371094 398 L 718 398 Z M 718 369 " clip-rule="nonzero"/></clipPath></defs><path fill="#fdcc43" d="M 568.546875 508.324219 C 498.214844 508.300781 445.363281 454.746094 445.332031 383.46875 C 445.296875 312.792969 501.238281 257.324219 572.566406 257.554688 C 635.890625 257.761719 695.636719 311.382812 694.878906 383.824219 C 694.160156 453.441406 639.023438 508.351562 568.546875 508.324219 Z M 568.546875 508.324219 " fill-opacity="1" fill-rule="nonzero"/><g clip-path="url(#91b7ae38f6)"><path fill="#fdcc43" d="M 582.695312 198.292969 C 582.695312 205.585938 582.917969 212.890625 582.640625 220.171875 C 582.28125 229.550781 576.804688 235.488281 568.695312 235.871094 C 560.96875 236.226562 553.550781 229.503906 553.273438 220.539062 C 552.792969 205.027344 552.851562 189.484375 553.191406 173.96875 C 553.363281 166.246094 560.050781 160.199219 567.398438 159.945312 C 575.253906 159.679688 581.519531 164.578125 582.214844 172.914062 C 582.914062 181.320312 582.367188 189.832031 582.367188 198.292969 Z M 582.695312 198.292969 " fill-opacity="1" fill-rule="nonzero"/></g><path fill="#fdcc43" d="M 384.09375 369.375 C 391.394531 369.375 398.699219 369.199219 405.992188 369.421875 C 414.804688 369.6875 420.1875 375.28125 420.132812 383.675781 C 420.082031 392.070312 414.90625 397.570312 405.785156 397.773438 C 390.71875 398.105469 375.640625 398.058594 360.574219 397.839844 C 352.011719 397.71875 346.558594 392.285156 346.246094 384.414062 C 345.933594 376.40625 351.417969 370.109375 360.074219 369.582031 C 368.050781 369.097656 376.078125 369.480469 384.089844 369.480469 Z M 384.09375 369.375 " fill-opacity="1" fill-rule="nonzero"/><path fill="#fdcc43" d="M 553.011719 569.730469 C 553.011719 563.140625 552.828125 556.546875 553.066406 549.964844 C 553.40625 540.464844 558.640625 535.042969 567.253906 534.828125 C 575.695312 534.613281 582.011719 539.894531 582.359375 549.101562 C 582.898438 563.429688 582.871094 577.8125 582.285156 592.136719 C 581.921875 601.046875 575.742188 606.132812 567.535156 605.945312 C 558.984375 605.75 553.511719 600.128906 553.054688 590.90625 C 552.882812 587.386719 553.003906 583.847656 553 580.320312 C 552.996094 576.792969 553.003906 573.261719 553.011719 569.730469 Z M 553.011719 569.730469 " fill-opacity="1" fill-rule="nonzero"/><g clip-path="url(#121c49305e)"><path fill="#fdcc43" d="M 756.644531 369.425781 C 763.933594 369.425781 771.234375 369.226562 778.519531 369.476562 C 786.808594 369.765625 793.300781 376.207031 793.21875 383.605469 C 793.136719 391.058594 786.652344 397.628906 778.433594 397.78125 C 763.617188 398.042969 748.796875 398.0625 733.976562 397.832031 C 725.636719 397.703125 719.148438 391.335938 718.964844 383.914062 C 718.773438 376.121094 725.277344 369.808594 734.050781 369.433594 C 737.808594 369.269531 741.578125 369.371094 745.34375 369.359375 C 749.105469 369.351562 752.871094 369.359375 756.632812 369.359375 Z M 756.644531 369.425781 " fill-opacity="1" fill-rule="nonzero"/></g><path fill="#fdcc43" d="M 687.308594 488.230469 C 691.851562 488.046875 695.527344 489.882812 698.671875 493.035156 C 707.5 501.875 716.449219 510.597656 725.15625 519.554688 C 731.722656 526.308594 731.847656 536.777344 725.765625 542.382812 C 720.226562 547.496094 710.777344 546.546875 704.21875 540.035156 C 696.023438 531.898438 687.921875 523.664062 679.828125 515.425781 C 676.472656 512.011719 673.679688 508.246094 673.257812 503.230469 C 672.554688 494.816406 678.738281 488.21875 687.308594 488.230469 Z M 687.308594 488.230469 " fill-opacity="1" fill-rule="nonzero"/><path fill="#fdcc43" d="M 687.558594 281.910156 C 677.277344 281.929688 670.738281 272.6875 674.179688 263.011719 C 675.230469 260.085938 676.859375 257.527344 679.070312 255.34375 C 687.53125 246.859375 695.898438 238.285156 704.503906 229.953125 C 710.871094 223.792969 718.167969 223.375 724.097656 228.382812 C 730.230469 233.5625 731.59375 240.59375 726.304688 247.824219 C 717.546875 259.789062 706.300781 269.539062 695.527344 279.652344 C 693.417969 281.632812 690.457031 282.015625 687.558594 281.910156 Z M 687.558594 281.910156 " fill-opacity="1" fill-rule="nonzero"/><path fill="#fdcc43" d="M 449.882812 281.902344 C 445.332031 282.109375 441.621094 280.253906 438.570312 277.070312 C 429.796875 267.917969 420.929688 258.847656 412.417969 249.445312 C 406.890625 243.351562 407.226562 234.082031 412.558594 229.039062 C 418.351562 223.558594 426.386719 223.769531 432.714844 229.953125 C 442.125 239.148438 451.40625 248.476562 460.5625 257.929688 C 464.796875 262.3125 466.25 267.601562 463.492188 273.472656 C 461.089844 278.609375 455.757812 281.894531 449.882812 281.902344 Z M 449.882812 281.902344 " fill-opacity="1" fill-rule="nonzero"/><path fill="#fdcc43" d="M 421.710938 545.257812 C 410.523438 545.105469 404.714844 534.015625 410.300781 524.164062 C 412.011719 521.148438 414.542969 518.527344 416.992188 516.015625 C 424.71875 508.070312 432.492188 500.164062 440.425781 492.4375 C 446.148438 486.859375 454.035156 486.542969 459.570312 491.296875 C 465.464844 496.355469 466.417969 504.484375 461.550781 510.996094 C 459.167969 514.183594 456.28125 517.007812 453.503906 519.886719 C 447.78125 525.816406 441.886719 531.585938 436.246094 537.589844 C 432.074219 542.027344 427.738281 545.828125 421.710938 545.257812 Z M 421.710938 545.257812 " fill-opacity="1" fill-rule="nonzero"/><path fill="#e4e8e2" d="M 295.59375 559.476562 C 237.59375 559.476562 179.578125 560.199219 121.59375 559.199219 C 88.347656 558.628906 60.820312 544.457031 42.355469 515.980469 C 16.457031 476.042969 37.910156 422.089844 84.125 410.636719 C 92.363281 408.59375 96.625 405.625 99.824219 396.804688 C 110.691406 366.78125 131.078125 346.082031 163.839844 340.441406 C 177.574219 338.074219 191.109375 340.089844 204.171875 344.820312 C 208.257812 346.296875 210.453125 345.828125 212.078125 341.246094 C 228.410156 295.269531 261.761719 270.445312 309.464844 264.410156 C 357.128906 258.378906 406.226562 281.75 427.195312 328.363281 C 430.597656 335.921875 433.359375 343.703125 434.488281 351.917969 C 435.113281 356.492188 436.84375 357.808594 441.453125 356.671875 C 473.625 348.746094 502.25 357.007812 527.558594 377.179688 C 552.65625 397.179688 567.316406 423.734375 567.839844 455.804688 C 568.6875 507.84375 531.304688 548.230469 482.222656 558.082031 C 476.890625 559.148438 471.515625 559.5625 466.070312 559.550781 C 437.539062 559.492188 409.011719 559.484375 380.480469 559.53125 C 352.1875 559.53125 323.890625 559.53125 295.59375 559.53125 Z M 295.59375 559.476562 " fill-opacity="1" fill-rule="nonzero"/><path fill="#f9f3e5" d="M 469.03125 649.460938 C 411.027344 649.460938 353.015625 650.183594 295.027344 649.183594 C 261.785156 648.613281 234.253906 634.4375 215.789062 605.964844 C 189.890625 566.027344 211.347656 512.074219 257.5625 500.621094 C 265.800781 498.578125 270.058594 495.609375 273.257812 486.789062 C 284.125 456.765625 304.515625 436.066406 337.265625 430.425781 C 351.003906 428.058594 364.535156 430.074219 377.597656 434.804688 C 381.683594 436.28125 383.878906 435.8125 385.507812 431.230469 C 401.835938 385.253906 435.191406 360.429688 482.890625 354.394531 C 530.550781 348.359375 579.65625 371.734375 600.621094 418.347656 C 604.023438 425.90625 606.785156 433.6875 607.914062 441.902344 C 608.539062 446.476562 610.269531 447.792969 614.878906 446.65625 C 647.050781 438.730469 675.675781 446.992188 700.984375 467.164062 C 726.082031 487.164062 740.742188 513.71875 741.265625 545.789062 C 742.113281 597.828125 704.730469 638.214844 655.652344 648.066406 C 650.316406 649.132812 644.941406 649.546875 639.496094 649.535156 C 610.964844 649.476562 582.4375 649.46875 553.90625 649.515625 L 469.019531 649.515625 Z M 469.03125 649.460938 " fill-opacity="1" fill-rule="nonzero"/></svg>